# xmcd CD database file
#
# Track frame offsets:
#	150
#	12926
#	24313
#	37161
#	49511
#	62183
#	75233
#	90041
#	104954
#	118396
#	130894
#	140659
#	151502
#	165071
#
# Disc length: 2359 seconds
#
# Revision: 0
# Processed by: cddbd v1.4PL0 Copyright (c) Steve Scherf et al.
# Submitted via: CDex 1.51
#
DISCID=a609350e
DTITLE=Men of Blues - Vol 3
DYEAR=1998
DGENRE=Blues
TTITLE0=I'm Dealing With The Devil
TTITLE1=It hurst me toIt Hurts Me Too
TTITLE2=Warehouse Man Blues
TTITLE3=Bus Rider Blues
TTITLE4=Key To My Door
TTITLE5=County Jail Blues
TTITLE6=Lend Me Your Love
TTITLE7=He's A Jelly Roll Baker
TTITLE8=Rock Me Momma
TTITLE9=Hard Day Blues
TTITLE10=Feel So Bad
TTITLE11=San Fransisco Blue
TTITLE12=Down The Road Apiece
TTITLE13=Bobby Sox Blues
EXTD=YEAR: 1998
EXTT0=
EXTT1=
EXTT2=
EXTT3=
EXTT4=
EXTT5=
EXTT6=
EXTT7=
EXTT8=
EXTT9=
EXTT10=
EXTT11=
EXTT12=
EXTT13=
PLAYORDER=
